M48
; DRILL file {KiCad (5.1.8)-1} date 11/11/20 08:10:57
; FORMAT={-:-/ absolute / inch / decimal}
; #@! TF.CreationDate,2020-11-11T08:10:57-05:00
; #@! TF.GenerationSoftware,Kicad,Pcbnew,(5.1.8)-1
; #@! TF.FileFunction,Plated,1,2,PTH
FMAT,2
INCH
T1C0.0276
T2C0.0295
T3C0.0315
T4C0.0394
T5C0.0400
T6C0.1200
%
G90
G05
T1
X6.1448Y-5.525
X6.07Y-5.725
X6.1448Y-5.725
X5.97Y-5.325
X6.0448Y-5.325
X5.62Y-5.125
X5.62Y-5.1998
X5.87Y-5.125
X5.9448Y-5.125
X6.07Y-5.525
T2
X5.87Y-5.475
X5.87Y-5.525
X5.87Y-5.575
T3
X6.07Y-5.575
X6.1684Y-5.575
T4
X5.8708Y-6.075
X6.17Y-6.075
T5
X5.47Y-4.875
X5.57Y-4.875
X5.67Y-4.875
X5.77Y-4.875
X5.87Y-4.875
X5.97Y-4.875
X6.07Y-4.875
X6.17Y-4.875
X6.37Y-4.875
X6.47Y-4.875
X6.57Y-4.875
X6.67Y-4.875
X6.77Y-4.875
X6.87Y-4.875
X5.11Y-2.975
X5.21Y-2.975
X5.31Y-2.975
X5.41Y-2.975
X5.51Y-2.975
X5.61Y-2.975
X5.71Y-2.975
X5.81Y-2.975
X5.91Y-2.975
X6.01Y-2.975
X6.17Y-2.975
X6.27Y-2.975
X6.37Y-2.975
X6.47Y-2.975
X6.57Y-2.975
X6.67Y-2.975
X6.77Y-2.975
X6.87Y-2.975
T6
X6.97Y-4.675
X4.92Y-4.875
X4.97Y-2.975
X6.97Y-3.575
T0
M30
